<mxfile host="app.diagrams.net" agent="Mozilla/5.0 (Windows NT 10.0; Win64; x64) AppleWebKit/537.36 (KHTML, like Gecko) Chrome/136.0.0.0 Safari/537.36 Edg/136.0.0.0" version="27.0.2">
  <diagram name="Trang-1" id="Y73uk2NvZazpeoCsTUrs">
    <mxGraphModel dx="970" dy="496" grid="1" gridSize="10" guides="1" tooltips="1" connect="1" arrows="1" fold="1" page="1" pageScale="1" pageWidth="827" pageHeight="1169" math="0" shadow="0">
      <root>
        <mxCell id="0" />
        <mxCell id="1" parent="0" />
        <mxCell id="s8l3ISeXjByuw9BJptxl-1" value="User" style="shape=umlActor;verticalLabelPosition=bottom;verticalAlign=top;html=1;outlineConnect=0;" parent="1" vertex="1">
          <mxGeometry x="80" y="70" width="30" height="60" as="geometry" />
        </mxCell>
        <mxCell id="s8l3ISeXjByuw9BJptxl-2" value="" style="endArrow=none;dashed=1;html=1;rounded=0;" parent="1" target="s8l3ISeXjByuw9BJptxl-1" edge="1">
          <mxGeometry width="50" height="50" relative="1" as="geometry">
            <mxPoint x="95" y="480" as="sourcePoint" />
            <mxPoint x="100" y="160" as="targetPoint" />
          </mxGeometry>
        </mxCell>
        <mxCell id="s8l3ISeXjByuw9BJptxl-3" value="ViewLogin" style="shape=umlBoundary;whiteSpace=wrap;html=1;" parent="1" vertex="1">
          <mxGeometry x="200" y="65" width="90" height="65" as="geometry" />
        </mxCell>
        <mxCell id="s8l3ISeXjByuw9BJptxl-4" value="Control" style="ellipse;shape=umlControl;whiteSpace=wrap;html=1;" parent="1" vertex="1">
          <mxGeometry x="373" y="57.5" width="81" height="72.5" as="geometry" />
        </mxCell>
        <mxCell id="s8l3ISeXjByuw9BJptxl-5" value="HoSoEntity" style="ellipse;shape=umlEntity;whiteSpace=wrap;html=1;" parent="1" vertex="1">
          <mxGeometry x="550" y="65" width="80" height="65" as="geometry" />
        </mxCell>
        <mxCell id="s8l3ISeXjByuw9BJptxl-6" value="" style="endArrow=none;dashed=1;html=1;rounded=0;" parent="1" edge="1" source="ZXuasmkUzZKdzhuF5KMJ-9">
          <mxGeometry width="50" height="50" relative="1" as="geometry">
            <mxPoint x="254.76" y="480" as="sourcePoint" />
            <mxPoint x="254.76" y="130" as="targetPoint" />
          </mxGeometry>
        </mxCell>
        <mxCell id="s8l3ISeXjByuw9BJptxl-7" value="" style="endArrow=none;dashed=1;html=1;rounded=0;" parent="1" edge="1" source="ZXuasmkUzZKdzhuF5KMJ-11">
          <mxGeometry width="50" height="50" relative="1" as="geometry">
            <mxPoint x="413.58" y="480" as="sourcePoint" />
            <mxPoint x="413.58" y="130" as="targetPoint" />
          </mxGeometry>
        </mxCell>
        <mxCell id="s8l3ISeXjByuw9BJptxl-8" value="" style="endArrow=none;dashed=1;html=1;rounded=0;" parent="1" edge="1" source="ZXuasmkUzZKdzhuF5KMJ-21">
          <mxGeometry width="50" height="50" relative="1" as="geometry">
            <mxPoint x="590" y="480" as="sourcePoint" />
            <mxPoint x="590" y="130" as="targetPoint" />
          </mxGeometry>
        </mxCell>
        <mxCell id="ZXuasmkUzZKdzhuF5KMJ-1" value="&lt;font style=&quot;font-size: 10px;&quot;&gt;1. Chọn thông tin cần chỉnh sửa&amp;nbsp;&lt;/font&gt;" style="html=1;verticalAlign=bottom;startArrow=none;startFill=0;endArrow=open;curved=0;rounded=0;endFill=0;" edge="1" parent="1">
          <mxGeometry width="60" relative="1" as="geometry">
            <mxPoint x="100" y="170" as="sourcePoint" />
            <mxPoint x="250" y="170" as="targetPoint" />
          </mxGeometry>
        </mxCell>
        <mxCell id="ZXuasmkUzZKdzhuF5KMJ-3" value="" style="html=1;points=[[0,0,0,0,5],[0,1,0,0,-5],[1,0,0,0,5],[1,1,0,0,-5]];perimeter=orthogonalPerimeter;outlineConnect=0;targetShapes=umlLifeline;portConstraint=eastwest;newEdgeStyle={&quot;curved&quot;:0,&quot;rounded&quot;:0};" vertex="1" parent="1">
          <mxGeometry x="90" y="160" width="10" height="170" as="geometry" />
        </mxCell>
        <mxCell id="ZXuasmkUzZKdzhuF5KMJ-6" value="" style="html=1;verticalAlign=bottom;startArrow=none;startFill=0;endArrow=block;curved=0;rounded=0;endFill=1;" edge="1" parent="1">
          <mxGeometry width="60" relative="1" as="geometry">
            <mxPoint x="255" y="212" as="sourcePoint" />
            <mxPoint x="410" y="212" as="targetPoint" />
          </mxGeometry>
        </mxCell>
        <mxCell id="ZXuasmkUzZKdzhuF5KMJ-7" value="&lt;font style=&quot;font-size: 10px;&quot;&gt;2. *Chỉnh sửa thông tin&lt;/font&gt;" style="html=1;verticalAlign=bottom;startArrow=none;startFill=0;endArrow=open;curved=0;rounded=0;endFill=0;" edge="1" parent="1">
          <mxGeometry width="60" relative="1" as="geometry">
            <mxPoint x="100" y="190" as="sourcePoint" />
            <mxPoint x="250" y="190" as="targetPoint" />
          </mxGeometry>
        </mxCell>
        <mxCell id="ZXuasmkUzZKdzhuF5KMJ-8" value="&lt;font style=&quot;font-size: 10px;&quot;&gt;[Nhấn nút xác nhận] 3. UpdateInfor()&lt;/font&gt;" style="text;html=1;align=center;verticalAlign=middle;resizable=0;points=[];autosize=1;strokeColor=none;fillColor=none;" vertex="1" parent="1">
          <mxGeometry x="240" y="180" width="190" height="30" as="geometry" />
        </mxCell>
        <mxCell id="ZXuasmkUzZKdzhuF5KMJ-10" value="" style="endArrow=none;dashed=1;html=1;rounded=0;" edge="1" parent="1" target="ZXuasmkUzZKdzhuF5KMJ-9">
          <mxGeometry width="50" height="50" relative="1" as="geometry">
            <mxPoint x="254.76" y="480" as="sourcePoint" />
            <mxPoint x="254.76" y="130" as="targetPoint" />
          </mxGeometry>
        </mxCell>
        <mxCell id="ZXuasmkUzZKdzhuF5KMJ-9" value="" style="html=1;points=[[0,0,0,0,5],[0,1,0,0,-5],[1,0,0,0,5],[1,1,0,0,-5]];perimeter=orthogonalPerimeter;outlineConnect=0;targetShapes=umlLifeline;portConstraint=eastwest;newEdgeStyle={&quot;curved&quot;:0,&quot;rounded&quot;:0};" vertex="1" parent="1">
          <mxGeometry x="250" y="200" width="10" height="110" as="geometry" />
        </mxCell>
        <mxCell id="ZXuasmkUzZKdzhuF5KMJ-12" value="" style="endArrow=none;dashed=1;html=1;rounded=0;" edge="1" parent="1" target="ZXuasmkUzZKdzhuF5KMJ-11">
          <mxGeometry width="50" height="50" relative="1" as="geometry">
            <mxPoint x="413.58" y="480" as="sourcePoint" />
            <mxPoint x="413.58" y="130" as="targetPoint" />
          </mxGeometry>
        </mxCell>
        <mxCell id="ZXuasmkUzZKdzhuF5KMJ-11" value="" style="html=1;points=[[0,0,0,0,5],[0,1,0,0,-5],[1,0,0,0,5],[1,1,0,0,-5]];perimeter=orthogonalPerimeter;outlineConnect=0;targetShapes=umlLifeline;portConstraint=eastwest;newEdgeStyle={&quot;curved&quot;:0,&quot;rounded&quot;:0};" vertex="1" parent="1">
          <mxGeometry x="409" y="210" width="10" height="90" as="geometry" />
        </mxCell>
        <mxCell id="ZXuasmkUzZKdzhuF5KMJ-16" value="" style="html=1;verticalAlign=bottom;startArrow=none;startFill=0;endArrow=block;curved=0;rounded=0;endFill=1;" edge="1" parent="1" target="ZXuasmkUzZKdzhuF5KMJ-21">
          <mxGeometry width="60" relative="1" as="geometry">
            <mxPoint x="419" y="230" as="sourcePoint" />
            <mxPoint x="590" y="231" as="targetPoint" />
          </mxGeometry>
        </mxCell>
        <mxCell id="ZXuasmkUzZKdzhuF5KMJ-17" value="&lt;span style=&quot;font-size: 10px;&quot;&gt;4.UpdateInforRepo()&lt;/span&gt;" style="text;html=1;align=center;verticalAlign=middle;resizable=0;points=[];autosize=1;strokeColor=none;fillColor=none;" vertex="1" parent="1">
          <mxGeometry x="449" y="200" width="110" height="30" as="geometry" />
        </mxCell>
        <mxCell id="ZXuasmkUzZKdzhuF5KMJ-20" value="5. Thông báo update thành công" style="html=1;verticalAlign=bottom;endArrow=open;dashed=1;endSize=8;curved=0;rounded=0;" edge="1" parent="1">
          <mxGeometry relative="1" as="geometry">
            <mxPoint x="590" y="280" as="sourcePoint" />
            <mxPoint x="420" y="280" as="targetPoint" />
          </mxGeometry>
        </mxCell>
        <mxCell id="ZXuasmkUzZKdzhuF5KMJ-22" value="" style="endArrow=none;dashed=1;html=1;rounded=0;" edge="1" parent="1" target="ZXuasmkUzZKdzhuF5KMJ-21">
          <mxGeometry width="50" height="50" relative="1" as="geometry">
            <mxPoint x="590" y="480" as="sourcePoint" />
            <mxPoint x="590" y="130" as="targetPoint" />
          </mxGeometry>
        </mxCell>
        <mxCell id="ZXuasmkUzZKdzhuF5KMJ-21" value="" style="html=1;points=[[0,0,0,0,5],[0,1,0,0,-5],[1,0,0,0,5],[1,1,0,0,-5]];perimeter=orthogonalPerimeter;outlineConnect=0;targetShapes=umlLifeline;portConstraint=eastwest;newEdgeStyle={&quot;curved&quot;:0,&quot;rounded&quot;:0};" vertex="1" parent="1">
          <mxGeometry x="585" y="230" width="10" height="50" as="geometry" />
        </mxCell>
        <mxCell id="ZXuasmkUzZKdzhuF5KMJ-23" value="6. Thông báo update thành công" style="html=1;verticalAlign=bottom;endArrow=open;dashed=1;endSize=8;curved=0;rounded=0;" edge="1" parent="1">
          <mxGeometry relative="1" as="geometry">
            <mxPoint x="410" y="290" as="sourcePoint" />
            <mxPoint x="260" y="290" as="targetPoint" />
          </mxGeometry>
        </mxCell>
        <mxCell id="ZXuasmkUzZKdzhuF5KMJ-24" value="7. Thông báo update thành công" style="html=1;verticalAlign=bottom;endArrow=open;dashed=1;endSize=8;curved=0;rounded=0;" edge="1" parent="1">
          <mxGeometry relative="1" as="geometry">
            <mxPoint x="250" y="310" as="sourcePoint" />
            <mxPoint x="100" y="310" as="targetPoint" />
          </mxGeometry>
        </mxCell>
      </root>
    </mxGraphModel>
  </diagram>
</mxfile>
